<?xml version="1.0" encoding="utf-8"?>
<!-- Generator: Adobe Illustrator 27.0.1, SVG Export Plug-In . SVG Version: 6.00 Build 0)  -->
<svg version="1.1" id="Layer_1" xmlns="http://www.w3.org/2000/svg" xmlns:xlink="http://www.w3.org/1999/xlink" x="0px" y="0px"
	 viewBox="0 0 786.82 892.76" style="enable-background:new 0 0 786.82 892.76;" xml:space="preserve">
<style type="text/css">
	.st0{stroke:#000000;stroke-miterlimit:10;}
	.st1{fill:#FFFFFF;}
</style>
<g>
	<g>
		<polygon class="st0" points="786.32,223.51 786.32,372.05 742.64,396.85 699.01,372.11 699.01,273.04 655.27,248.24 
			626.45,231.87 611.65,223.51 568.02,198.71 524.34,173.97 480.65,149.18 475.23,146.08 437.03,124.44 437.03,520.71 
			480.65,545.45 524.34,570.25 524.34,421.64 556.3,403.52 579.75,403.52 611.65,421.64 655.27,446.38 699.01,471.18 699.01,520.65 
			655.33,545.45 611.65,520.65 611.65,669.31 568.02,694.05 524.34,669.25 509.53,660.89 480.72,644.52 437.03,619.72 
			437.03,867.45 393.41,892.19 349.73,867.45 349.73,570.19 306.1,545.45 262.42,520.65 262.42,768.38 218.74,793.12 175.11,768.38 
			175.11,272.98 218.74,297.78 262.42,272.98 262.42,421.64 306.04,446.38 349.73,471.18 349.73,124.44 311.53,146.08 306.1,149.18 
			262.42,173.97 218.74,198.71 175.11,223.51 160.3,231.87 131.49,248.24 87.81,273.04 87.81,372.05 44.12,396.85 0.5,372.11 
			0.5,223.45 44.12,198.71 87.81,173.91 131.43,149.18 136.86,146.08 175.11,124.38 218.74,99.64 262.42,74.85 288.09,60.29 
			306.04,50.11 349.73,25.31 393.41,0.57 437.03,25.31 480.72,50.11 498.67,60.29 524.34,74.85 568.02,99.64 611.65,124.38 
			649.9,146.08 655.33,149.18 699.01,173.97 742.64,198.71 		"/>
		<polygon class="st1" points="182.35,285.42 182.35,301.2 196.02,293.31 		"/>
		<polygon class="st1" points="255.2,285.42 241.53,293.31 255.2,301.2 		"/>
	</g>
</g>
<g>
</g>
<g>
</g>
<g>
</g>
<g>
</g>
<g>
</g>
</svg>
